{"asset":{"generator":"3D Builder","version":"2.0"},"scene":0,"scenes":[{"nodes":[0]}],"nodes":[{"mesh":0,"matrix":[0.99999994039535522,0,0,0,0,-1.1920928244535389E-7,-0.99999982118606567,0,0,0.99999982118606567,-1.1920928244535389E-7,0,0.20268300175666809,-0.007860792800784111,-0.19193197786808014,1]}],"meshes":[{"primitives":[{"attributes":{"POSITION":0},"mode":4,"indices":1,"material":0}]}],"materials":[{"name":"Metallic","pbrMetallicRoughness":{"baseColorFactor":[0.723055362701416,0.33245158195495605,0.021219009533524513,1],"metallicFactor":1,"roughnessFactor":0.12999999523162842},"alphaMode":"OPAQUE"}],"accessors":[{"bufferView":0,"byteOffset":0,"count":158016,"componentType":5126,"type":"VEC3","min":[-0.0013869701651856303,-0.0014047700678929687,0.00786077044904232],"max":[0.251321017742157,0.2511570155620575,0.06452680379152298]},{"bufferView":1,"byteOffset":0,"count":956172,"componentType":5125,"type":"SCALAR"}],"bufferViews":[{"buffer":0,"byteOffset":0,"byteLength":1896192,"byteStride":12,"target":34962},{"buffer":0,"byteOffset":1896192,"byteLength":3824688,"target":34963}],"buffers":[{"byteLength":5720880,"uri":"vasevoronoi_201222_173949.bin"}]}